<svg width="314" height="76" viewBox="0 0 314 76" fill="none" xmlns="http://www.w3.org/2000/svg">
<path d="M313.5 38C313.5 42.9528 309.338 47.8228 301.414 52.3573C293.528 56.87 282.083 60.9507 267.898 64.3841C239.535 71.249 200.327 75.5 157 75.5C113.673 75.5 74.4646 71.249 46.1019 64.3841C31.9166 60.9507 20.4721 56.87 12.5862 52.3573C4.66197 47.8228 0.5 42.9528 0.5 38C0.5 33.0472 4.66197 28.1772 12.5862 23.6427C20.4721 19.13 31.9166 15.0493 46.1019 11.6159C74.4646 4.75104 113.673 0.5 157 0.5C200.327 0.5 239.535 4.75104 267.898 11.6159C282.083 15.0493 293.528 19.13 301.414 23.6427C309.338 28.1772 313.5 33.0472 313.5 38Z" stroke="#F25822"/>
</svg>
