<svg width="770" height="374" viewBox="0 0 770 374" fill="none" xmlns="http://www.w3.org/2000/svg">
<path d="M22.6161 89.557C24.4744 82.622 31.6027 78.5064 38.5378 80.3646L54.4045 84.6161C61.3395 86.4744 65.4551 93.6027 63.5969 100.538L59.3454 116.404C57.4872 123.34 50.3588 127.455 43.4237 125.597L27.557 121.345C20.622 119.487 16.5064 112.359 18.3646 105.424L22.6161 89.557Z" fill="#F25822" fill-opacity="0.46"/>
<path d="M660.483 314.759C662.63 310.025 667.582 307.211 672.749 307.791L690.468 309.777C695.634 310.357 699.84 314.197 700.885 319.289L704.471 336.755C705.517 341.848 703.164 347.034 698.644 349.602L683.141 358.41C678.621 360.978 672.961 360.343 669.122 356.838L655.955 344.815C652.116 341.31 650.97 335.731 653.118 330.997L660.483 314.759Z" fill="#149211" fill-opacity="0.3"/>
<path d="M720 25C720 11.1929 731.193 0 745 0C758.807 0 770 11.1929 770 25V40C770 45.5228 765.523 50 760 50H745C731.193 50 720 38.8071 720 25Z" fill="#F25822" fill-opacity="0.46"/>
</svg>
